HIERARCHY
ROOT joint_Root
{
	OFFSET 0.0 0.0 0.0
	CHANNELS 6 Xposition Yposition Zposition Zrotation Xrotation Yrotation 
	JOINT Hips
	{
		OFFSET 4.5925 91.4895 -427.239
		CHANNELS 6 Xposition Yposition Zposition Zrotation Xrotation Yrotation 
		JOINT Spine
		{
			OFFSET 15.7357 0.0 0.0
			CHANNELS 6 Xposition Yposition Zposition Zrotation Xrotation Yrotation 
			JOINT Chest
			{
				OFFSET 8.98455 -0.406207 0.0
				CHANNELS 6 Xposition Yposition Zposition Zrotation Xrotation Yrotation 
				JOINT Neck
				{
					OFFSET 16.3773 0.0 0.0
					CHANNELS 6 Xposition Yposition Zposition Zrotation Xrotation Yrotation 
					JOINT Head
					{
						OFFSET 6.45672 0.0 0.0
						CHANNELS 6 Xposition Yposition Zposition Zrotation Xrotation Yrotation 
						End Site
						{
							OFFSET 0.0 0.0 0.0
						}
					}
				}
				JOINT Shoulder_L
				{
					OFFSET 12.9942 -0.242716 4.98039
					CHANNELS 6 Xposition Yposition Zposition Zrotation Xrotation Yrotation 
					JOINT UpperArm_L
					{
						OFFSET 5.34809 0.0 0.0
						CHANNELS 6 Xposition Yposition Zposition Zrotation Xrotation Yrotation 
						JOINT LowerArm_L
						{
							OFFSET 24.3286 1.87007e-05 0.0
							CHANNELS 6 Xposition Yposition Zposition Zrotation Xrotation Yrotation 
							JOINT Hand_L
							{
								OFFSET 22.2916 0.0 0.0
								CHANNELS 6 Xposition Yposition Zposition Zrotation Xrotation Yrotation 
								End Site
								{
									OFFSET 0.0 0.0 0.0
								}
							}
						}
					}
				}
				JOINT Shoulder_R
				{
					OFFSET 12.9945 -0.242716 -4.98039
					CHANNELS 6 Xposition Yposition Zposition Zrotation Xrotation Yrotation 
					JOINT UpperArm_R
					{
						OFFSET -5.34813 0.0 0.0
						CHANNELS 6 Xposition Yposition Zposition Zrotation Xrotation Yrotation 
						JOINT LowerArm_R
						{
							OFFSET -24.3289 0.000322201 0.0
							CHANNELS 6 Xposition Yposition Zposition Zrotation Xrotation Yrotation 
							JOINT Hand_R
							{
								OFFSET -22.2915 -0.000108084 0.0
								CHANNELS 6 Xposition Yposition Zposition Zrotation Xrotation Yrotation 
								End Site
								{
									OFFSET 0.0 0.0 0.0
								}
							}
						}
					}
				}
			}
		}
		JOINT UpperLeg_L
		{
			OFFSET -2.19248 -6.46944 0.0
			CHANNELS 6 Xposition Yposition Zposition Zrotation Xrotation Yrotation 
			JOINT LowerLeg_L
			{
				OFFSET 39.0811 0.0 -1.23785e-05
				CHANNELS 6 Xposition Yposition Zposition Zrotation Xrotation Yrotation 
				JOINT Foot_L
				{
					OFFSET 40.9854 0.0 -1.26872e-05
					CHANNELS 6 Xposition Yposition Zposition Zrotation Xrotation Yrotation 
					JOINT Toes_L
					{
						OFFSET 11.7543 0.0 0.0
						CHANNELS 6 Xposition Yposition Zposition Zrotation Xrotation Yrotation 
						End Site
						{
							OFFSET 0.0 0.0 0.0
						}
					}
				}
			}
		}
		JOINT UpperLeg_R
		{
			OFFSET -2.19251 6.46944 0.0
			CHANNELS 6 Xposition Yposition Zposition Zrotation Xrotation Yrotation 
			JOINT LowerLeg_R
			{
				OFFSET -39.0811 -0.00228153 -0.0401928
				CHANNELS 6 Xposition Yposition Zposition Zrotation Xrotation Yrotation 
				JOINT Foot_R
				{
					OFFSET -40.9854 0.0 0.0
					CHANNELS 6 Xposition Yposition Zposition Zrotation Xrotation Yrotation 
					JOINT Toes_R
					{
						OFFSET -11.7543 0.0 0.0
						CHANNELS 6 Xposition Yposition Zposition Zrotation Xrotation Yrotation 
						End Site
						{
							OFFSET 0.0 0.0 0.0
						}
					}
				}
			}
		}
	}
}
MOTION
Frames:	4
Frame Time:	0.0333333
0.000000 0.000000 0.000000 0.000000 0.000000 -0.000000 -0.695562 90.206600 4.588380 89.663000 -5.205870 9.648920 15.735700 0.000005 -0.000001 84.165400 83.328800 -83.989400 8.984550 -0.406207 -0.000000 5.510510 -1.356640 0.416795 16.377300 -0.000001 -0.000001 3.294620 -4.190060 1.811010 6.456720 -0.000001 -0.000000 -7.993430 -3.151220 -1.649530 12.994200 -0.242716 4.980390 -91.865000 7.000820 -75.042500 5.348090 -0.000007 -0.000001 -64.664900 37.290900 -12.400500 24.328600 0.000019 0.000005 8.305380 23.738000 -19.932200 22.291600 -0.000001 0.000005 8.208060 5.314600 -0.341000 12.994500 -0.242716 -4.980390 88.360700 11.478000 -81.815800 -5.348130 -0.000001 -0.000004 -63.140800 34.544300 -7.520330 -24.328900 0.000322 -0.000009 1.132090 3.705090 -17.019000 -22.291500 -0.000108 -0.000004 12.299300 5.414350 -3.409590 -2.192480 -6.469440 -0.000000 -173.652000 -14.929300 3.622190 39.081100 -0.000007 -0.000012 -0.228818 0.386033 30.657400 40.985400 -0.000006 -0.000013 -0.388117 4.679460 -73.917100 11.754300 -0.000000 0.000003 -0.000109 -0.001107 -16.619900 -2.192510 6.469440 -0.000001 172.202000 20.904600 -174.949000 -39.081100 -0.002282 -0.040193 -0.265195 0.467596 29.865200 -40.985400 0.000008 0.000006 2.783210 13.884600 -74.291000 -11.754300 -0.000006 -0.000006 -0.000824 -0.012869 -17.096600
0.000000 0.000000 0.000000 0.000000 0.000000 -0.000000 -0.727360 90.205100 4.539800 89.655300 -5.192510 9.722150 15.735700 0.000005 -0.000001 84.125400 83.330100 -83.932400 8.984550 -0.406207 -0.000000 5.507310 -1.365960 0.451284 16.377300 -0.000001 -0.000001 3.264350 -4.162070 1.888200 6.456720 -0.000001 -0.000000 -8.154480 -3.097060 -1.678230 12.994200 -0.242716 4.980390 -91.849200 6.980760 -75.123500 5.348090 -0.000007 -0.000001 -64.462300 38.174900 -13.111400 24.328600 0.000019 0.000005 8.646190 23.430600 -20.927300 22.291600 -0.000001 0.000005 7.883610 5.317380 -0.420628 12.994500 -0.242716 -4.980390 88.398200 11.409000 -81.953400 -5.348130 -0.000001 -0.000004 -63.792300 35.247100 -7.753390 -24.328900 0.000322 -0.000009 1.088910 3.407990 -17.747600 -22.291500 -0.000108 -0.000004 12.264500 5.415630 -3.452580 -2.192480 -6.469440 -0.000000 -173.603000 -14.934000 3.637170 39.081100 -0.000007 -0.000012 -0.228626 0.384965 30.706000 40.985400 -0.000006 -0.000013 -0.402022 4.698350 -73.898700 11.754300 -0.000000 0.000003 -0.000108 -0.001098 -16.619600 -2.192510 6.469440 -0.000001 172.192000 20.965700 -174.906000 -39.081100 -0.002282 -0.040193 -0.265985 0.468318 29.899700 -40.985400 0.000008 0.000006 2.830850 13.930000 -74.295200 -11.754300 -0.000006 -0.000006 -0.000808 -0.012634 -17.087000
0.000000 0.000000 0.000000 0.000000 0.000000 -0.000000 -0.741460 90.205100 4.495790 89.677200 -5.190520 9.854320 15.735700 0.000005 -0.000001 84.179400 83.299200 -83.962200 8.984550 -0.406207 -0.000000 5.570220 -1.360020 0.500247 16.377300 -0.000001 -0.000001 3.216500 -4.149850 2.054610 6.456720 -0.000001 -0.000000 -8.335250 -3.048080 -1.825740 12.994200 -0.242716 4.980390 -91.847700 7.018710 -75.210900 5.348090 -0.000007 -0.000001 -64.107900 38.732000 -13.932100 24.328600 0.000019 0.000005 9.181970 23.342600 -22.192900 22.291600 -0.000001 0.000005 7.524290 5.326700 -0.689883 12.994500 -0.242716 -4.980390 88.440800 11.295100 -82.087900 -5.348130 -0.000001 -0.000004 -64.315900 36.113700 -8.056080 -24.328900 0.000322 -0.000009 0.969735 2.882690 -18.622000 -22.291500 -0.000108 -0.000004 12.148500 5.421330 -3.643910 -2.192480 -6.469440 -0.000000 -173.593000 -14.883200 3.727250 39.081100 -0.000007 -0.000012 -0.229939 0.386937 30.721400 40.985400 -0.000006 -0.000013 -0.415274 4.681230 -73.872200 11.754300 -0.000000 0.000003 -0.000109 -0.001105 -16.619900 -2.192510 6.469440 -0.000001 172.137000 20.936700 -174.808000 -39.081100 -0.002282 -0.040193 -0.268869 0.472701 29.932900 -40.985400 0.000008 0.000006 2.844970 13.926100 -74.295400 -11.754300 -0.000006 -0.000006 -0.000827 -0.012918 -17.098600
0.000000 0.000000 0.000000 0.000000 0.000000 -0.000000 -0.761397 90.211300 4.430110 89.664800 -5.141560 9.857000 15.735700 0.000005 -0.000001 84.189500 83.310200 -83.938600 8.984550 -0.406207 -0.000000 5.549020 -1.356190 0.566976 16.377300 -0.000001 -0.000001 3.208650 -4.205830 2.260210 6.456720 -0.000001 -0.000000 -8.473680 -3.073160 -1.839690 12.994200 -0.242716 4.980390 -91.842900 7.036740 -75.283900 5.348090 -0.000007 -0.000001 -63.709700 38.441200 -14.850700 24.328600 0.000019 0.000005 9.784900 22.977600 -23.835000 22.291600 -0.000001 0.000005 7.251580 5.334350 -0.912733 12.994500 -0.242716 -4.980390 88.489100 11.166000 -82.244100 -5.348130 -0.000001 -0.000004 -64.743500 37.105700 -8.362600 -24.328900 0.000322 -0.000009 0.880173 2.488360 -19.508300 -22.291500 -0.000108 -0.000004 12.202000 5.425390 -3.781570 -2.192480 -6.469440 -0.000000 -173.581000 -14.830900 3.668340 39.081100 -0.000007 -0.000012 -0.230551 0.387640 30.742700 40.985400 -0.000006 -0.000013 -0.422750 4.692520 -73.834600 11.754300 -0.000000 0.000003 -0.000105 -0.001075 -16.618700 -2.192510 6.469440 -0.000001 172.179000 20.980900 -174.854000 -39.081100 -0.002282 -0.040193 -0.268565 0.471913 29.946500 -40.985400 0.000008 0.000006 2.870240 13.909000 -74.265800 -11.754300 -0.000006 -0.000006 -0.000805 -0.012600 -17.085700
